<svg width="480" height="360" viewBox="0 0 480 360" fill="none" xmlns="http://www.w3.org/2000/svg">
<rect y="-0.00585938" width="480" height="360" rx="21.1945" fill="white"/>
<rect x="70.1533" y="23.9941" width="15" height="15" rx="7.5" fill="#FCA5A5"/>
<rect x="47.0762" y="23.9941" width="15" height="15" rx="7.5" fill="#86EFAC"/>
<rect x="24" y="23.9941" width="15" height="15" rx="7.5" fill="#FEF08A"/>
<path opacity="0.9" d="M332.351 205.141C330.427 205.141 328.865 204.005 328.865 202.605V155.673C328.865 154.273 330.427 153.137 332.351 153.137C334.275 153.137 335.836 154.273 335.836 155.673V202.605C335.836 204.005 334.275 205.141 332.351 205.141Z" fill="#2463EB"/>
<path opacity="0.9" d="M319.892 196.917C321.802 196.917 323.377 195.358 323.377 193.437V164.835C323.377 162.914 321.816 161.355 319.892 161.355C317.982 161.355 316.406 162.914 316.406 164.835V193.437C316.406 195.358 317.968 196.917 319.892 196.917Z" fill="#2463EB"/>
<path opacity="0.75" d="M345.499 210.32C343.575 210.32 342.014 208.762 342.014 206.841V151.446C342.014 149.526 343.575 147.967 345.499 147.967C347.423 147.967 348.985 149.526 348.985 151.446V206.841C348.985 208.762 347.423 210.32 345.499 210.32Z" fill="#2463EB"/>
<path opacity="0.5" d="M358.632 205.282C356.708 205.282 355.146 203.723 355.146 201.803V156.485C355.146 154.564 356.708 153.005 358.632 153.005C360.556 153.005 362.118 154.564 362.118 156.485V201.803C362.118 203.723 360.556 205.282 358.632 205.282Z" fill="#2463EB"/>
<path opacity="0.25" d="M371.779 198.532C369.854 198.532 368.293 196.973 368.293 195.053V163.235C368.293 161.315 369.854 159.756 371.779 159.756C373.703 159.756 375.264 161.315 375.264 163.235V195.053C375.264 196.973 373.703 198.532 371.779 198.532Z" fill="#2463EB"/>
<path opacity="0.5" d="M384.913 193.814C382.989 193.814 381.428 192.256 381.428 190.335V167.94C381.428 166.02 382.989 164.461 384.913 164.461C386.837 164.461 388.399 166.02 388.399 167.94V190.335C388.399 192.256 386.837 193.814 384.913 193.814Z" fill="#2463EB"/>
<path opacity="0.75" d="M424.341 193.814C422.417 193.814 420.855 192.256 420.855 190.335V167.94C420.855 166.02 422.417 164.461 424.341 164.461C426.265 164.461 427.827 166.02 427.827 167.94V190.335C427.827 192.256 426.265 193.814 424.341 193.814Z" fill="#2463EB"/>
<path opacity="0.75" d="M437.478 187.805C439.408 187.805 440.999 186.885 440.999 185.751V172.526C440.999 171.391 439.422 170.471 437.478 170.471C435.549 170.471 433.957 171.391 433.957 172.526V185.751C433.957 186.885 435.534 187.805 437.478 187.805Z" fill="#2463EB"/>
<path opacity="0.75" d="M398.06 192.533C396.136 192.533 394.574 190.974 394.574 189.053V169.233C394.574 167.313 396.136 165.754 398.06 165.754C399.984 165.754 401.545 167.313 401.545 169.233V189.053C401.545 190.974 399.984 192.533 398.06 192.533Z" fill="#2463EB"/>
<path opacity="0.9" d="M411.195 196.917C409.271 196.917 407.709 195.358 407.709 193.437V164.835C407.709 162.914 409.271 161.355 411.195 161.355C413.119 161.355 414.68 162.914 414.68 164.835V193.437C414.68 195.358 413.119 196.917 411.195 196.917Z" fill="#2463EB"/>
<path opacity="0.9" d="M147.451 205.141C149.38 205.141 150.972 204.005 150.972 202.605V155.673C150.972 154.273 149.394 153.137 147.451 153.137C145.521 153.137 143.93 154.273 143.93 155.673V202.605C143.93 204.005 145.507 205.141 147.451 205.141Z" fill="#2463EB"/>
<path opacity="0.9" d="M160.417 196.917C162.327 196.917 163.903 195.358 163.903 193.437V164.835C163.903 162.914 162.341 161.355 160.417 161.355C158.507 161.355 156.932 162.914 156.932 164.835V193.437C156.932 195.358 158.493 196.917 160.417 196.917Z" fill="#2463EB"/>
<path opacity="0.75" d="M134.329 210.32C136.239 210.32 137.815 208.762 137.815 206.841V151.446C137.815 149.526 136.253 147.967 134.329 147.967C132.419 147.967 130.844 149.526 130.844 151.446V206.841C130.844 208.762 132.405 210.32 134.329 210.32Z" fill="#2463EB"/>
<path opacity="0.5" d="M121.183 205.283C123.093 205.283 124.668 203.724 124.668 201.803V156.485C124.668 154.565 123.107 153.006 121.183 153.006C119.273 153.006 117.697 154.565 117.697 156.485V201.803C117.697 203.724 119.259 205.283 121.183 205.283Z" fill="#2463EB"/>
<path opacity="0.25" d="M108.05 198.532C109.96 198.532 111.536 196.973 111.536 195.053V163.235C111.536 161.315 109.974 159.756 108.05 159.756C106.14 159.756 104.564 161.315 104.564 163.235V195.053C104.564 196.973 106.126 198.532 108.05 198.532Z" fill="#2463EB"/>
<path opacity="0.5" d="M94.9016 193.814C96.8117 193.814 98.3871 192.256 98.3871 190.335V167.94C98.3871 166.02 96.8256 164.461 94.9016 164.461C92.9915 164.461 91.416 166.02 91.416 167.94V190.335C91.416 192.256 92.9775 193.814 94.9016 193.814Z" fill="#2463EB"/>
<path opacity="0.75" d="M55.4856 193.814C57.3956 193.814 58.9711 192.256 58.9711 190.335V167.94C58.9711 166.02 57.4096 164.461 55.4856 164.461C53.5755 164.461 52 166.02 52 167.94V190.335C52 192.256 53.5615 193.814 55.4856 193.814Z" fill="#2463EB"/>
<path opacity="0.75" d="M42.5211 187.805C44.4507 187.805 46.0423 186.885 46.0423 185.751V172.526C46.0423 171.391 44.4648 170.471 42.5211 170.471C40.5915 170.471 39 171.391 39 172.526V185.751C39 186.885 40.5775 187.805 42.5211 187.805Z" fill="#2463EB"/>
<path opacity="0.75" d="M81.7688 192.533C83.6788 192.533 85.2543 190.974 85.2543 189.053V169.233C85.2543 167.313 83.6928 165.754 81.7688 165.754C79.8587 165.754 78.2832 167.313 78.2832 169.233V189.053C78.2832 190.974 79.8447 192.533 81.7688 192.533Z" fill="#2463EB"/>
<path opacity="0.9" d="M68.6203 196.917C70.5304 196.917 72.1059 195.358 72.1059 193.437V164.835C72.1059 162.914 70.5443 161.355 68.6203 161.355C66.7102 161.355 65.1348 162.914 65.1348 164.835V193.437C65.1348 195.358 66.6963 196.917 68.6203 196.917Z" fill="#2463EB"/>
<g filter="url(#filter0_d_1644_10200)">
<path d="M311.999 169.994C312 209.759 279.764 241.994 240 241.994C200.236 241.994 168 209.759 168 169.994C168 130.23 200.235 97.9941 240 97.9941C279.764 97.9941 311.999 130.23 311.999 169.994Z" fill="#2463EB"/>
</g>
<path d="M242.387 121.473C242.976 121.595 243.544 121.716 244.133 121.818C252.236 123.3 258.857 130.754 258.959 138.999C259.101 149.742 259.101 160.486 258.938 171.209C258.857 176.651 256.156 180.997 251.911 184.308C241.656 192.309 226.79 187.74 222.829 175.352C222.22 173.422 221.997 171.29 221.976 169.239C221.895 159.653 221.936 150.088 221.936 140.502C221.936 132.399 225.795 126.651 232.943 123.097C234.405 122.366 236.111 122.143 237.695 121.696C238 121.615 238.305 121.554 238.609 121.493C239.868 121.493 241.128 121.493 242.387 121.493V121.473Z" fill="white"/>
<path d="M244.296 202.91V210.567C244.722 210.567 245.088 210.567 245.453 210.567C249.942 210.567 254.43 210.546 258.938 210.567C261.639 210.587 263.447 213.024 262.573 215.441C262.045 216.883 260.969 217.736 259.446 217.939C259.324 217.939 259.202 217.959 259.06 217.959C246.712 217.959 234.365 217.959 222.017 217.959C219.864 217.959 218.24 216.273 218.26 214.181C218.28 212.13 219.925 210.567 222.159 210.567C226.627 210.546 231.075 210.567 235.543 210.567C235.908 210.567 236.294 210.567 236.721 210.567V202.93C235.421 202.687 234.08 202.484 232.781 202.159C221.489 199.397 213.853 192.37 209.345 181.83C207.72 178.012 207.131 173.93 207.131 169.766C207.131 167.35 207.131 164.933 207.131 162.516C207.131 160.262 208.735 158.597 210.827 158.597C212.919 158.597 214.503 160.262 214.523 162.516C214.564 165.563 214.503 168.609 214.665 171.655C215.011 178.276 217.732 183.84 222.505 188.369C230.547 195.944 239.99 197.792 250.124 193.812C259.08 190.299 264.686 183.434 266.107 173.747C266.656 170.01 266.412 166.172 266.513 162.374C266.574 160.1 268.361 158.434 270.555 158.617C272.2 158.739 273.845 160.201 273.865 161.826C273.906 167.309 274.312 172.813 272.89 178.235C271.205 184.673 267.752 190.055 262.878 194.523C258.451 198.584 253.272 201.204 247.383 202.402C246.367 202.606 245.352 202.748 244.316 202.93L244.296 202.91Z" fill="white"/>
<defs>
<filter id="filter0_d_1644_10200" x="132.735" y="62.7288" width="214.53" height="214.531" filterUnits="userSpaceOnUse" color-interpolation-filters="sRGB">
<feFlood flood-opacity="0" result="BackgroundImageFix"/>
<feColorMatrix in="SourceAlpha" type="matrix" values="0 0 0 0 0 0 0 0 0 0 0 0 0 0 0 0 0 0 127 0" result="hardAlpha"/>
<feOffset/>
<feGaussianBlur stdDeviation="17.6327"/>
<feComposite in2="hardAlpha" operator="out"/>
<feColorMatrix type="matrix" values="0 0 0 0 0 0 0 0 0 0 0 0 0 0 0 0 0 0 0.15 0"/>
<feBlend mode="normal" in2="BackgroundImageFix" result="effect1_dropShadow_1644_10200"/>
<feBlend mode="normal" in="SourceGraphic" in2="effect1_dropShadow_1644_10200" result="shape"/>
</filter>
</defs>
</svg>
